<svg width="192" height="192" viewBox="0 0 192 192" fill="none" xmlns="http://www.w3.org/2000/svg">
<rect width="192" height="192" rx="12" fill="#CDD6F4"/>
<path d="M90.145 22C51.488 22.0002 20.0929 53.4557 20.0928 92.1873C20.0931 92.22 20.0941 92.2528 20.0957 92.2856C20.099 92.3771 20.1034 92.4553 20.1072 92.537C20.1024 92.5419 20.0976 92.5467 20.0928 92.5515V97.4685C18.2877 98.4137 17 100.258 17 102.411V138.842C17 140.995 18.2877 142.84 20.0928 143.785V149.667V150.465V151.263C20.0928 154.337 22.6475 156.897 25.7158 156.897H43.0233V157.816C43.0233 160.89 45.578 163.45 48.6463 163.45H143.533C146.601 163.45 149.153 160.89 149.153 157.816V156.897H166.464C169.532 156.897 172.084 154.337 172.084 151.263V150.465V149.667V143.785C173.889 142.84 175.179 140.995 175.179 138.842V102.411C175.179 100.258 173.889 98.4137 172.084 97.4684V92.592V92.5515C172.085 92.4291 172.084 92.3266 172.084 92.2682C172.084 53.5367 140.688 22.0811 102.031 22.0809H92.3492C91.6338 22.0434 90.9189 22.0154 90.2027 22C90.1822 22.018 90.162 22.0363 90.1421 22.0549L90.145 22ZM90.1305 27.3477C90.8016 27.3626 91.4712 27.3869 92.1414 27.4228C92.1895 27.4251 92.2376 27.426 92.2857 27.4257H102.031C137.805 27.4259 166.749 56.4257 166.749 92.2682C166.749 92.3907 166.75 92.4693 166.749 92.5081C166.749 92.5226 166.749 92.537 166.749 92.5515V99.4514C166.749 99.8026 166.818 100.15 166.952 100.475C167.086 100.799 167.283 101.094 167.531 101.342C167.778 101.591 168.073 101.788 168.396 101.922C168.72 102.056 169.067 102.125 169.418 102.125H169.556C169.761 102.125 169.845 102.206 169.845 102.411V138.842C169.845 139.047 169.761 139.128 169.556 139.128H169.418C169.067 139.128 168.72 139.197 168.396 139.331C168.073 139.466 167.778 139.663 167.531 139.911C167.283 140.159 167.086 140.454 166.952 140.779C166.818 141.103 166.749 141.451 166.749 141.802V149.667V150.465V151.263C166.749 151.468 166.669 151.552 166.464 151.552H146.487C145.78 151.552 145.102 151.833 144.601 152.334C144.101 152.835 143.819 153.514 143.819 154.223V157.816C143.819 158.022 143.738 158.102 143.533 158.102H48.6463C48.4412 158.102 48.3606 158.022 48.3606 157.816V154.223C48.3601 153.514 48.0786 152.835 47.5782 152.334C47.0777 151.833 46.3993 151.552 45.6919 151.552H25.7158C25.5107 151.552 25.4273 151.468 25.4273 151.263V150.465V149.667V141.802C25.4275 141.093 25.1467 140.413 24.6469 139.912C24.147 139.411 23.4688 139.129 22.7615 139.128H22.623C22.4179 139.128 22.3345 139.047 22.3345 138.842V102.411C22.3345 102.206 22.4179 102.125 22.623 102.125H22.7615C23.4688 102.125 24.147 101.843 24.6469 101.341C25.1467 100.84 25.4275 100.16 25.4273 99.4514V92.5515L25.41 92.5688C25.4219 92.521 25.4324 92.4728 25.4417 92.4243C25.437 92.3264 25.4336 92.2413 25.4302 92.1584C25.4463 56.3345 54.3737 27.3559 90.1305 27.3477Z" fill="#FBEFDB"/>
<path d="M143.531 133.778H48.645C47.0134 133.778 45.6907 135.103 45.6907 136.738V158.1C45.6907 159.735 47.0134 161.06 48.645 161.06H143.531C145.163 161.06 146.485 159.735 146.485 158.1V136.738C146.485 135.103 145.163 133.778 143.531 133.778Z" fill="#D2A33B"/>
<path d="M169.556 99.7361H22.6211C20.9894 99.7361 19.6667 101.061 19.6667 102.696V139.125C19.6667 140.76 20.9894 142.085 22.6211 142.085H169.556C171.187 142.085 172.51 140.76 172.51 139.125V102.696C172.51 101.061 171.187 99.7361 169.556 99.7361Z" fill="#4F3B0F"/>
<path d="M90.1441 24.9566C52.9287 24.9568 22.7597 55.184 22.7595 92.4711C22.764 92.5924 22.7699 92.7138 22.7756 92.8351H22.7595V149.95V150.749V151.547C22.7595 153.187 24.077 154.507 25.7136 154.507H166.461C168.098 154.507 169.415 153.187 169.415 151.547V150.749V149.95V92.8351C169.415 92.7405 169.415 92.646 169.415 92.5514C169.415 55.2643 139.246 25.0371 102.031 25.0369H92.2837C91.5707 24.9987 90.8579 24.972 90.1441 24.9566Z" fill="#F7C14B"/>
<path d="M75.4174 64.4736C52.5855 64.4737 34.0765 83.0183 34.0764 105.894C34.0763 128.771 52.5853 113.639 75.4174 113.639V113.689V113.738H116.759V113.689C139.591 113.689 158.1 128.82 158.1 105.944C158.1 83.0677 139.591 64.523 116.759 64.5229H76.7306C76.2931 64.4995 75.8554 64.4831 75.4174 64.4736Z" fill="#636363"/>
<path d="M71.9652 78.3923L82.1497 99.8685H70.1296L64.5045 87.054L58.8201 99.8685H46.9185L57.0437 78.3923H71.9652Z" fill="#CDD6F4"/>
<path d="M135.073 78.3923L145.258 99.8685H133.238L127.612 87.054L121.928 99.8685H110.026L120.152 78.3923H135.073Z" fill="#CDD6F4"/>
<path d="M93.5467 22.183C90.577 22.183 88.8172 23.5834 87.5551 24.5471C86.2931 25.5108 85.132 26.6166 83.981 27.8644C81.6789 30.3601 79.4603 33.1697 78.0837 36.8254C76.3015 41.5583 77.3605 45.5358 77.8512 48.1079C78.3248 50.5904 78.6901 54.0248 79.7256 57.6956C80.7612 61.3664 82.658 65.6881 86.8504 68.5712C87.9494 69.3269 89.2509 69.7318 90.5839 69.7326H96.5036C97.8385 69.733 99.1422 69.3281 100.243 68.5712C104.435 65.6881 106.332 61.3664 107.368 57.6956C108.403 54.0248 108.767 50.5904 109.241 48.1079C109.732 45.5359 110.791 41.5584 109.008 36.8254C107.632 33.1697 105.409 30.3601 103.106 27.8644C101.955 26.6166 100.8 25.5108 99.5382 24.5471C98.2761 23.5834 96.5164 22.183 93.5467 22.183Z" fill="#D2A33B"/>
<path d="M93.5465 26.4392C91.1084 26.4392 89.6637 27.5889 88.6275 28.3801C87.5914 29.1713 86.6381 30.0791 85.6931 31.1035C83.8031 33.1524 81.9818 35.459 80.8517 38.4603C79.3885 42.3459 80.258 45.6114 80.6608 47.723C81.0496 49.761 81.3495 52.5806 82.1997 55.5943C83.0499 58.608 84.6071 62.156 88.049 64.523C88.9513 65.1434 90.0198 65.4757 91.1141 65.4764H95.974C97.0699 65.4767 98.1402 65.1443 99.0439 64.523C102.486 62.156 104.043 58.608 104.893 55.5943C105.743 52.5806 106.042 49.761 106.431 47.723C106.834 45.6115 107.703 42.346 106.24 38.4603C105.11 35.459 103.285 33.1524 101.395 31.1035C100.45 30.0791 99.5014 29.1713 98.4653 28.3801C97.4292 27.5889 95.9845 26.4392 93.5465 26.4392Z" fill="#4F3B0F"/>
<path d="M35.3132 107.727L42.5871 139.468L92.4614 143.382V143.391H92.7339H99.4421H99.7146V143.382L149.589 139.468L156.863 107.727L101.313 115.964H90.863L35.3132 107.727Z" fill="#FBEFDB" stroke="#FBEFDB" stroke-width="18.8103" stroke-linecap="round" stroke-linejoin="round"/>
</svg>
